Patient4_TMGait_0pt4_03_left_23_GRF.mot
version=1
nRows=45
nColumns=19
inDegrees=no
endheader
time	F1x	F1y	F1z	M1x	M1y	M1z	F2x	F2y	F2z	M2x	M2y	M2z	EC1x	EC1y	EC1z	EC2x	EC2y	EC2z
30.13	0.8933	3.9255	-2.3858	0.57781	2.598	1.1604	-42.1377	734.5912	-63.7753	285.8322	84.4204	837.5027	-0.0592	0.0182	-0.0073	-0.0462	0.0165	0.9585
30.1435	0.51655	3.0573	-1.5409	0.26648	1.6141	1.1302	-41.0156	731.1359	-61.9622	283.316	83.0207	829.6981	-0.0592	0.0182	-0.0073	-0.0462	0.0165	0.9585
30.157	0.18373	2.3247	-0.8105	-0.0088237	0.76112	1.1324	-39.7046	726.9993	-60.2314	280.673	81.4153	820.8898	-0.0592	0.0182	-0.0073	-0.0462	0.0165	0.9585
30.1705	-0.086745	1.7862	-0.24711	-0.23131	0.099797	1.1825	-38.2543	722.9661	-58.6164	278.2892	79.6125	812.0475	-0.0592	0.0182	-0.0073	-0.0462	0.0165	0.9585
30.184	-0.28807	1.4216	0.15339	-0.39312	-0.37006	1.2537	-36.6714	720.0132	-57.0866	276.5765	77.5937	804.2426	-0.0592	0.0182	-0.0073	-0.0462	0.0165	0.9585
30.1975	-0.44237	1.1973	0.40894	-0.49846	-0.6748	1.3313	-34.9183	719.0331	-55.5702	275.8835	75.3067	798.3669	-0.0592	0.0182	-0.0073	-0.0462	0.0165	0.9585
30.211	-0.56678	1.046	0.55735	-0.54732	-0.85953	1.3676	-32.8919	720.6583	-54.0308	276.436	72.72	794.9823	-0.0592	0.0182	-0.0073	-0.0462	0.0165	0.9585
30.2245	-0.67561	0.89041	0.63386	-0.53649	-0.96716	1.3055	-30.4412	725.1772	-52.4403	278.3147	69.7941	794.2631	-0.0592	0.0182	-0.0073	-0.0462	0.0165	0.9585
30.238	-0.79313	0.66129	0.67256	-0.45964	-1.0436	1.0958	-27.4021	732.4807	-50.8182	281.4407	66.521	795.9731	-0.0592	0.0182	-0.0073	-0.0462	0.0165	0.9585
30.2515	-0.9199	0.27479	0.70162	-0.30424	-1.121	0.65599	-23.6264	742.0755	-49.1801	285.5816	62.8866	799.5233	-0.0592	0.0182	-0.0073	-0.0462	0.0165	0.9585
30.265	-1.0682	-0.3456	0.73599	-0.05617	-1.2173	-0.074424	-19.049	753.119	-47.5839	290.3628	58.9404	804.043	-0.0592	0.0182	-0.0073	-0.0462	0.0165	0.9585
30.2785	-1.2228	-1.2545	0.78122	0.29355	-1.3292	-1.1403	-13.7562	764.497	-46.1041	295.2975	54.8054	808.4786	-0.0592	0.0182	-0.0073	-0.0462	0.0165	0.9585
30.292	-1.3511	-2.4553	0.82969	0.74055	-1.4316	-2.529	-8.0198	774.9524	-44.8688	299.8358	50.7306	811.7394	-0.0592	0.0182	-0.0073	-0.0462	0.0165	0.9585
30.3055	-1.4023	-3.8887	0.85541	1.2625	-1.4756	-4.1695	-2.2454	783.2501	-44.0136	303.4362	47.0267	812.8398	-0.0592	0.0182	-0.0073	-0.0462	0.0165	0.9585
30.319	-1.2915	-5.3835	0.82258	1.7977	-1.3925	-5.87	3.1132	788.4075	-43.661	305.6637	44.0065	811.0938	-0.0592	0.0182	-0.0073	-0.0462	0.0165	0.9585
30.3325	-0.91806	-6.5847	0.67484	2.2223	-1.087	-7.2309	7.6848	789.8759	-43.8416	306.2724	41.8596	806.227	-0.0592	0.0182	-0.0073	-0.0462	0.0165	0.9585
30.346	-0.13629	-6.9269	0.3451	2.3377	-0.43405	-7.6164	11.2725	787.6054	-44.5041	305.2346	40.6187	798.3789	-0.0592	0.0182	-0.0073	-0.0462	0.0165	0.9585
30.3595	1.1966	-5.5667	-0.24959	1.8502	0.71169	-6.0649	13.8998	782.0182	-45.5304	302.7244	40.1596	788.0538	-0.0592	0.0182	-0.0073	-0.0462	0.0165	0.9585
30.373	3.2072	-1.3846	-1.1916	0.36993	2.4875	-1.2937	15.7515	773.8399	-46.786	299.0485	40.2751	775.9612	-0.0592	0.0182	-0.0073	-0.0462	0.0165	0.9585
30.3865	5.9553	6.958	-2.5462	-2.5733	4.9851	8.2379	17.0373	763.8824	-48.1472	294.5533	40.7582	762.8424	-0.0592	0.0182	-0.0073	-0.0462	0.0165	0.9585
30.4	9.3488	20.8667	-4.3146	-7.4715	8.1681	24.1508	17.9429	752.7913	-49.5017	289.5222	41.4284	749.2493	-0.0592	0.0182	-0.0073	-0.0462	0.0165	0.9585
30.4135	13.056	41.4935	-6.3932	-14.7267	11.7927	47.7641	18.5685	740.8286	-50.7343	284.0944	42.1326	735.3584	-0.0592	0.0182	-0.0073	-0.0462	0.0165	0.9585
30.427	16.3579	69.2195	-8.496	-24.465	15.2776	79.5147	18.9245	727.7893	-51.7105	278.234	42.7302	720.8927	-0.0592	0.0182	-0.0073	-0.0462	0.0165	0.9585
30.4405	18.0505	102.8836	-10.0971	-36.2673	17.5972	118.0694	18.9876	713.0886	-52.2917	271.7581	43.0943	705.2067	-0.0592	0.0182	-0.0073	-0.0462	0.0165	0.9585
30.454	16.6812	139.1553	-10.3569	-48.9354	17.3077	159.6525	18.7236	695.9854	-52.3445	264.4219	43.1065	687.508	-0.0592	0.0182	-0.0073	-0.0462	0.0165	0.9585
30.4675	12.1296	173.1216	-8.5684	-60.6831	13.6018	198.7384	18.1343	675.9333	-51.7966	256.053	42.6919	667.176	-0.0592	0.0182	-0.0073	-0.0462	0.0165	0.9585
30.481	5.9506	199.9502	-4.6997	-69.8182	7.0487	229.7099	17.2922	652.9785	-50.6866	246.6928	41.8657	644.1548	-0.0592	0.0182	-0.0073	-0.0462	0.0165	0.9585
30.4945	-0.24729	218.5481	0.35769	-75.9992	-0.79471	251.0839	16.3582	627.8531	-49.2267	236.6245	40.7732	619.0573	-0.0592	0.0182	-0.0073	-0.0462	0.0165	0.9585
30.508	-5.5002	231.2155	5.7884	-80.0888	-8.6648	265.2922	15.5333	601.6273	-47.6741	226.256	39.5786	592.8368	-0.0592	0.0182	-0.0073	-0.0462	0.0165	0.9585
30.5215	-9.409	241.3762	10.813	-83.3526	-15.5654	276.1622	14.992	575.3767	-46.1527	215.9944	38.3311	566.4971	-0.0592	0.0182	-0.0073	-0.0462	0.0165	0.9585
30.535	-11.988	251.9878	15.0757	-86.8761	-21.0933	287.0267	14.8799	549.916	-44.5803	206.1517	36.9047	540.8073	-0.0592	0.0182	-0.0073	-0.0462	0.0165	0.9585
30.5485	-13.3648	264.916	18.2321	-91.3488	-24.936	299.9685	15.262	525.7017	-42.775	196.8993	35.1076	516.2294	-0.0592	0.0182	-0.0073	-0.0462	0.0165	0.9585
30.562	-13.6948	280.9376	20.3356	-97.0492	-27.2161	315.8875	16.156	502.7787	-40.6072	188.2469	32.8123	492.8358	-0.0592	0.0182	-0.0073	-0.0462	0.0165	0.9585
30.5755	-13.1843	300.1125	21.55	-103.9785	-28.2082	334.8834	17.5109	480.8767	-38.0932	180.0688	30.0435	470.4097	-0.0592	0.0182	-0.0073	-0.0462	0.0165	0.9585
30.589	-12.0314	321.9736	22.2692	-111.9301	-28.4154	356.4973	19.2282	459.4681	-35.3716	172.1321	26.9517	448.4878	-0.0592	0.0182	-0.0073	-0.0462	0.0165	0.9585
30.6025	-10.3908	345.5965	22.8657	-120.5375	-28.3033	379.7376	21.1482	437.8628	-32.6052	164.1444	23.7284	426.4496	-0.0592	0.0182	-0.0073	-0.0462	0.0165	0.9585
30.616	-8.4934	370.038	23.7244	-129.4266	-28.3607	403.6097	23.0385	415.3448	-29.9128	155.8061	20.5527	403.6572	-0.0592	0.0182	-0.0073	-0.0462	0.0165	0.9585
30.6295	-6.58	394.8811	25.0474	-138.4206	-28.8813	427.6621	24.6694	391.2102	-27.335	146.8296	17.5443	379.4602	-0.0592	0.0182	-0.0073	-0.0462	0.0165	0.9585
30.643	-4.8122	420.4722	26.9134	-147.6246	-29.9926	452.2655	25.7665	364.793	-24.8476	136.9518	14.7844	353.2499	-0.0592	0.0182	-0.0073	-0.0462	0.0165	0.9585
30.6565	-3.2457	447.7799	29.2717	-157.3652	-31.6507	478.4523	26.0601	335.5407	-22.4051	125.965	12.3391	324.5102	-0.0592	0.0182	-0.0073	-0.0462	0.0165	0.9585
30.67	-1.8434	477.945	32.0569	-168.0288	-33.765	507.4202	25.3248	303.2226	-19.9801	113.7891	10.2746	293.014	-0.0592	0.0182	-0.0073	-0.0462	0.0165	0.9585
30.6835	-0.56755	511.824	35.2256	-179.896	-36.2734	540.068	23.4096	268.1253	-17.5747	100.544	8.65	259.0146	-0.0592	0.0182	-0.0073	-0.0462	0.0165	0.9585
30.697	0.60646	549.6044	38.7985	-193.0067	-39.1904	576.5752	20.3287	231.1552	-15.22	86.5881	7.492	223.3417	-0.0592	0.0182	-0.0073	-0.0462	0.0165	0.9585
30.7105	1.6662	590.6358	42.8162	-207.1012	-42.5752	616.274	16.3068	193.7689	-12.9594	72.4815	6.7635	187.3633	-0.0592	0.0182	-0.0073	-0.0462	0.0165	0.9585
30.724	2.5778	633.4255	47.2363	-221.633	-46.4081	657.6286	11.776	157.5959	-10.8372	58.8466	6.3509	152.5875	-0.0592	0.0182	-0.0073	-0.0462	0.0165	0.9585
